<svg width="16" height="26" viewBox="0 0 16 26" fill="none" xmlns="http://www.w3.org/2000/svg">
<path d="M0.574971 0.55121C0.206725 0.904256 -0.000144958 1.38302 -0.000144958 1.88223C-0.000144958 2.38144 0.206725 2.86021 0.574971 3.21325L10.2982 12.5323L0.574971 21.8513C0.217161 22.2064 0.0191717 22.682 0.0236473 23.1756C0.0281229 23.6692 0.234704 24.1414 0.598899 24.4904C0.963094 24.8395 1.45576 25.0375 1.97079 25.0418C2.48582 25.0461 2.982 24.8563 3.35247 24.5134L14.4644 13.8633C14.8327 13.5103 15.0396 13.0315 15.0396 12.5323C15.0396 12.0331 14.8327 11.5543 14.4644 11.2013L3.35247 0.55121C2.98411 0.19827 2.48458 0 1.96372 0C1.44286 0 0.94333 0.19827 0.574971 0.55121Z" fill="#FF0000"/>
</svg>
