<svg width="100" height="100" viewBox="0 0 100 100" fill="none" xmlns="http://www.w3.org/2000/svg">
<path d="M0.742676 0.899414H99.2576V99.1006H0.742676V0.899414Z" fill="#D9D9D9"/>
<path fill-rule="evenodd" clip-rule="evenodd" d="M0 0H100V100H0V0ZM0.742558 0.899421V99.1006H99.2574V0.899421H0.742558Z" fill="#3B332F"/>
<path d="M43.6369 26.6602L48.5862 46.9284H24.311L43.6369 26.6602Z" fill="#BCB7B7"/>
<path d="M0.742676 22.6629L27.139 0.967285L43.6367 26.6594L24.3108 46.9277L0.742676 37.6827V22.6629Z" fill="white"/>
<path d="M41.5156 0.899414H94.544L81.5815 23.8051L41.5156 0.899414Z" fill="white"/>
<path d="M0.742676 0.967285H27.139L0.742676 22.6629V0.967285Z" fill="#FF0000"/>
<path d="M41.8122 0.967285L81.5816 23.8048L58.9562 29.2287L43.6369 26.6594L27.1392 0.967285H41.8122Z" fill="#BCB7B7"/>
<path d="M43.6367 26.6602L58.956 29.2294L68.8546 57.2053L48.586 46.9284L43.6367 26.6602Z" fill="#FF0000"/>
<path d="M68.8813 57.0993L99.2573 99.1008H42.458L48.5857 46.9282L68.8813 57.0993Z" fill="#BCB7B7"/>
<path d="M0.742676 90.2512L24.2418 46.9282H48.586L42.4583 99.1008H0.742676V90.2512Z" fill="white"/>
<path d="M68.8547 57.2045L58.9561 29.2286L81.5815 23.8047L99.2576 63.4848V74.0471V99.3856L68.8547 57.2045Z" fill="white"/>
<path d="M0.742676 37.5068L24.3108 46.9273L0.742676 90.2131V37.5068Z" fill="#FF0000"/>
<path d="M94.5435 0.967285H99.2572V96.531L81.5811 23.8048L94.5435 0.967285Z" fill="#FF0000"/>
</svg>
