<svg width="35" height="34" viewBox="0 0 35 34" fill="none" xmlns="http://www.w3.org/2000/svg">
<path d="M3.27869 0.59082C2.98856 0.59082 2.71031 0.706075 2.50515 0.91123C2.3 1.11638 2.18474 1.39463 2.18474 1.68477C2.18474 1.9749 2.3 2.25315 2.50515 2.4583C2.71031 2.66346 2.98856 2.77871 3.27869 2.77871H4.91961L0.165317 14.1886C0.0468175 14.4685 -0.00918172 14.7709 0.00122506 15.0747C0.0632646 16.7729 0.781489 18.3808 2.00482 19.5602C3.22815 20.7397 4.86122 21.3987 6.56053 21.3987C8.25984 21.3987 9.89292 20.7397 11.1162 19.5602C12.3396 18.3808 13.0578 16.7729 13.1198 15.0747C13.1302 14.7709 13.0742 14.4685 12.9557 14.1886L8.20145 2.77871H16.4061V24.6577H8.74842C7.58789 24.6577 6.47489 25.1187 5.65427 25.9393C4.83366 26.7599 4.37264 27.8729 4.37264 29.0334C4.37264 30.194 4.83366 31.307 5.65427 32.1276C6.47489 32.9482 7.58789 33.4092 8.74842 33.4092H26.2516C27.4121 33.4092 28.5251 32.9482 29.3457 32.1276C30.1663 31.307 30.6274 30.194 30.6274 29.0334C30.6274 27.8729 30.1663 26.7599 29.3457 25.9393C28.5251 25.1187 27.4121 24.6577 26.2516 24.6577H18.5939V2.77871H26.7985L22.0443 14.1886C21.9258 14.4685 21.8698 14.7709 21.8802 15.0747C21.9422 16.7729 22.6604 18.3808 23.8838 19.5602C25.1071 20.7397 26.7402 21.3987 28.4395 21.3987C30.1388 21.3987 31.7719 20.7397 32.9952 19.5602C34.2185 18.3808 34.9367 16.7729 34.9988 15.0747C35.0092 14.7709 34.9532 14.4685 34.8347 14.1886L30.0804 2.77871H31.7213C32.0114 2.77871 32.2897 2.66346 32.4949 2.4583C32.7 2.25315 32.8153 1.9749 32.8153 1.68477C32.8153 1.39463 32.7 1.11638 32.4949 0.91123C32.2897 0.706075 32.0114 0.59082 31.7213 0.59082H3.27869ZM6.56053 19.1879C5.59034 19.1878 4.64768 18.8654 3.8806 18.2714C3.11352 17.6774 2.56549 16.8454 2.32258 15.9061H10.7985C10.5556 16.8454 10.0075 17.6774 9.24046 18.2714C8.47338 18.8654 7.53072 19.1878 6.56053 19.1879ZM6.56053 4.52903L10.3893 13.7182H2.73172L6.56053 4.52903ZM8.74842 26.8455H26.2516C26.8318 26.8455 27.3883 27.0761 27.7987 27.4864C28.209 27.8967 28.4395 28.4532 28.4395 29.0334C28.4395 29.6137 28.209 30.1702 27.7987 30.5805C27.3883 30.9908 26.8318 31.2213 26.2516 31.2213H8.74842C8.16816 31.2213 7.61166 30.9908 7.20135 30.5805C6.79104 30.1702 6.56053 29.6137 6.56053 29.0334C6.56053 28.4532 6.79104 27.8967 7.20135 27.4864C7.61166 27.0761 8.16816 26.8455 8.74842 26.8455ZM32.2683 13.7182H24.6107L28.4395 4.52903L32.2683 13.7182ZM24.2015 15.9061H32.6774C32.4341 16.8449 31.8859 17.6764 31.1188 18.27C30.3518 18.8636 29.4094 19.1857 28.4395 19.1857C27.4696 19.1857 26.5271 18.8636 25.7601 18.27C24.9931 17.6764 24.4449 16.8449 24.2015 15.9061Z" fill="black"/>
</svg>
