<svg width="39" height="40" viewBox="0 0 39 40" fill="none" xmlns="http://www.w3.org/2000/svg">
<path d="M19.5 6V2.5M19.5 34V37.5M9.7245 10.2245L7.25 7.75M29.524 30.024L31.9985 32.4985M5.5 20H2M33.5 20H37M29.5258 10.2245L32.0002 7.75M9.72625 30.024L7.25 32.4985M19.5 28.75C17.1794 28.75 14.9538 27.8281 13.3128 26.1872C11.6719 24.5462 10.75 22.3206 10.75 20C10.75 17.6794 11.6719 15.4538 13.3128 13.8128C14.9538 12.1719 17.1794 11.25 19.5 11.25C21.8206 11.25 24.0462 12.1719 25.6872 13.8128C27.3281 15.4538 28.25 17.6794 28.25 20C28.25 22.3206 27.3281 24.5462 25.6872 26.1872C24.0462 27.8281 21.8206 28.75 19.5 28.75Z" stroke="black" stroke-width="3.33333" stroke-linecap="round" stroke-linejoin="round"/>
</svg>
