<svg width="35" height="32" viewBox="0 0 35 32" fill="none" xmlns="http://www.w3.org/2000/svg">
<path d="M17.4716 0.67748C18.7636 0.67748 20.0027 1.19073 20.9163 2.10433C21.8299 3.01792 22.3431 4.25702 22.3431 5.54904C22.3431 6.84106 21.8299 8.08016 20.9163 8.99376C20.0027 9.90735 18.7636 10.4206 17.4716 10.4206C16.1793 10.4206 14.9399 9.90724 14.0261 8.99344C13.1123 8.07964 12.5989 6.84026 12.5989 5.54795C12.5989 4.25564 13.1123 3.01626 14.0261 2.10246C14.9399 1.18866 16.1793 0.67748 17.4716 0.67748ZM17.4716 2.86498C16.7597 2.86498 16.077 3.14776 15.5736 3.65112C15.0703 4.15448 14.7875 4.83718 14.7875 5.54904C14.7875 6.2609 15.0703 6.9436 15.5736 7.44696C16.077 7.95032 16.7597 8.2331 17.4716 8.2331C18.1837 8.2331 18.8667 7.95021 19.3703 7.44664C19.8738 6.94308 20.1567 6.2601 20.1567 5.54795C20.1567 4.8358 19.8738 4.15282 19.3703 3.64926C18.8667 3.14569 18.1837 2.86498 17.4716 2.86498ZM2.2225 19.2931C2.2225 19.5832 2.10727 19.8614 1.90215 20.0665C1.69703 20.2716 1.41883 20.3869 1.12875 20.3869C0.83867 20.3869 0.56047 20.2716 0.355352 20.0665C0.150234 19.8614 0.0350001 19.5832 0.0350001 19.2931V13.855C0.0350708 13.3192 0.231779 12.8021 0.587814 12.4017C0.94385 12.0013 1.43445 11.7455 1.96656 11.6828L2.2225 11.6675H8.25344C7.93515 12.2167 7.74102 12.829 7.68469 13.4612L7.66719 13.855H2.22031L2.2225 19.2931ZM33.8844 20.3869C34.1745 20.3869 34.4527 20.2716 34.6578 20.0665C34.8629 19.8614 34.9781 19.5832 34.9781 19.2931V13.855L34.9628 13.6012C34.9006 13.0687 34.645 12.5776 34.2446 12.2211C33.8442 11.8646 33.3268 11.6676 32.7906 11.6675H26.7006C27.02 12.2209 27.2256 12.8553 27.2738 13.529L27.2847 13.8572H32.7906V19.2931C32.7906 19.5832 32.9059 19.8614 33.111 20.0665C33.3161 20.2716 33.5943 20.3869 33.8844 20.3869ZM22.9119 11.6675C23.448 11.6676 23.9654 11.8646 24.3659 12.2211C24.7663 12.5776 25.0219 13.0687 25.0841 13.6012L25.0972 13.855V19.2931C25.0972 19.5832 24.982 19.8614 24.7768 20.0665C24.5717 20.2716 24.2935 20.3869 24.0034 20.3869C23.7134 20.3869 23.4352 20.2716 23.23 20.0665C23.0249 19.8614 22.9097 19.5832 22.9097 19.2931V13.855H12.0422V19.2931C12.0422 19.5832 11.927 19.8614 11.7218 20.0665C11.5167 20.2716 11.2385 20.3869 10.9484 20.3869C10.6584 20.3869 10.3802 20.2716 10.175 20.0665C9.96992 19.8614 9.85469 19.5832 9.85469 19.2931V13.855C9.85476 13.3192 10.0515 12.8021 10.4075 12.4017C10.7635 12.0013 11.2541 11.7455 11.7863 11.6828L12.0422 11.6675H22.9097H22.9119ZM32.5675 6.23592C32.5675 5.12578 32.1265 4.06111 31.3415 3.27612C30.5565 2.49114 29.4919 2.05014 28.3817 2.05014C27.2716 2.05014 26.2069 2.49114 25.4219 3.27612C24.6369 4.06111 24.1959 5.12578 24.1959 6.23592C24.1959 7.34606 24.6369 8.41073 25.4219 9.19571C26.2069 9.9807 27.2716 10.4217 28.3817 10.4217C29.4919 10.4217 30.5565 9.9807 31.3415 9.19571C32.1265 8.41073 32.5675 7.34606 32.5675 6.23592ZM26.3834 6.23592C26.3834 5.70594 26.594 5.19767 26.9687 4.82292C27.3435 4.44817 27.8517 4.23764 28.3817 4.23764C28.9117 4.23764 29.42 4.44817 29.7947 4.82292C30.1695 5.19767 30.38 5.70594 30.38 6.23592C30.38 6.7659 30.1695 7.27417 29.7947 7.64892C29.42 8.02367 28.9117 8.2342 28.3817 8.2342C27.8517 8.2342 27.3435 8.02367 26.9687 7.64892C26.594 7.27417 26.3834 6.7659 26.3834 6.23592ZM6.5975 2.04904C7.70764 2.04904 8.77231 2.49004 9.55729 3.27503C10.3423 4.06002 10.7833 5.12469 10.7833 6.23482C10.7833 7.34496 10.3423 8.40963 9.55729 9.19462C8.77231 9.9796 7.70764 10.4206 6.5975 10.4206C5.48736 10.4206 4.42269 9.9796 3.63771 9.19462C2.85272 8.40963 2.41172 7.34496 2.41172 6.23482C2.41172 5.12469 2.85272 4.06002 3.63771 3.27503C4.42269 2.49004 5.48736 2.04904 6.5975 2.04904ZM6.5975 4.23654C6.06752 4.23654 5.55925 4.44707 5.1845 4.82183C4.80975 5.19658 4.59922 5.70485 4.59922 6.23482C4.59922 6.7648 4.80975 7.27307 5.1845 7.64782C5.55925 8.02257 6.06752 8.2331 6.5975 8.2331C7.12748 8.2331 7.63575 8.02257 8.0105 7.64782C8.38525 7.27307 8.59578 6.7648 8.59578 6.23482C8.59578 5.70485 8.38525 5.19658 8.0105 4.82183C7.63575 4.44707 7.12748 4.23654 6.5975 4.23654ZM1.09375 22.5744C0.803669 22.5744 0.52547 22.6896 0.320352 22.8947C0.115234 23.0998 0 23.378 0 23.6681V25.8556C0 27.306 0.57617 28.697 1.60176 29.7226C2.62735 30.7482 4.01835 31.3244 5.46875 31.3244H29.5312C30.9817 31.3244 32.3727 30.7482 33.3982 29.7226C34.4238 28.697 35 27.306 35 25.8556V23.6681C35 23.378 34.8848 23.0998 34.6796 22.8947C34.4745 22.6896 34.1963 22.5744 33.9062 22.5744H1.09375ZM2.1875 25.8556V24.7619H32.8125V25.8556C32.8125 26.7258 32.4668 27.5604 31.8514 28.1758C31.2361 28.7912 30.4015 29.1369 29.5312 29.1369H5.46875C4.59851 29.1369 3.76391 28.7912 3.14856 28.1758C2.5332 27.5604 2.1875 26.7258 2.1875 25.8556Z" fill="black"/>
</svg>
