<svg width="28" height="16" viewBox="0 0 28 16" fill="#E60808" xmlns="http://www.w3.org/2000/svg">
<path d="M0.615867 15.425C1.01032 15.7933 1.54525 16.0001 2.10302 16.0001C2.66078 16.0001 3.19571 15.7933 3.59017 15.425L14.0023 5.70181L24.4145 15.425C24.8112 15.7828 25.3425 15.9808 25.8941 15.9764C26.4456 15.9719 26.9731 15.7653 27.3631 15.4011C27.7531 15.0369 27.9744 14.5442 27.9792 14.0292C27.984 13.5142 27.7719 13.018 27.3888 12.6475L15.4895 1.53556C15.095 1.16732 14.5601 0.960449 14.0023 0.960449C13.4446 0.960449 12.9096 1.16732 12.5152 1.53556L0.615867 12.6475C0.221528 13.0159 5.48795e-07 13.5154 5.71563e-07 14.0363C5.9433e-07 14.5571 0.221528 15.0567 0.615867 15.425Z" fill="#FF0000"/>
</svg>
