<svg width="119" height="100" viewBox="0 0 119 100" fill="none" xmlns="http://www.w3.org/2000/svg">
<path d="M0.883789 0.883301H118.117V97.3619H0.883789V0.883301Z" fill="#D9D9D9"/>
<path fill-rule="evenodd" clip-rule="evenodd" d="M0 0H119V98.2459H0V0ZM0.883644 0.883644V97.3622H118.116V0.883644H0.883644Z" fill="#3B332F"/>
<path d="M51.9275 26.1919L57.8172 46.1046H28.9297L51.9275 26.1919Z" fill="#BCB7B7"/>
<path d="M0.883789 22.2657L32.2954 0.950684L51.9277 26.1922L28.9299 46.1049L0.883789 37.0221V22.2657Z" fill="white"/>
<path d="M49.4038 0.883301H112.508L97.0822 23.3872L49.4038 0.883301Z" fill="white"/>
<path d="M0.883789 0.950684H32.2954L0.883789 22.2657V0.950684Z" fill="#FF0000"/>
<path d="M49.7563 0.950684L97.0819 23.3876L70.1576 28.7163L51.9277 26.1922L32.2954 0.950684H49.7563Z" fill="#BCB7B7"/>
<path d="M51.9268 26.1919L70.1567 28.716L81.9361 56.2012L57.8164 46.1046L51.9268 26.1919Z" fill="#FF0000"/>
<path d="M81.9691 56.0981L118.117 97.3628H50.5254L57.8174 46.1055L81.9691 56.0981Z" fill="#BCB7B7"/>
<path d="M0.883789 88.6686L28.8478 46.1055H57.8174L50.5254 97.3628H0.883789V88.6686Z" fill="white"/>
<path d="M81.9366 56.2016L70.1572 28.7165L97.0815 23.3877L118.116 62.3718V72.7488V97.6429L81.9366 56.2016Z" fill="white"/>
<path d="M0.883789 36.8501L28.9299 46.1053L0.883789 88.6318V36.8501Z" fill="#FF0000"/>
<path d="M112.507 0.950684H118.116V94.8382L97.0815 23.3876L112.507 0.950684Z" fill="#FF0000"/>
<path opacity="0.5" d="M0.883789 72.6802H118.117V97.3607H0.883789V72.6802Z" fill="#666666"/>
<path d="M21.268 86.072V89H18.832V86.072L15.964 80.6H18.748L20.068 83.312L21.34 80.6H24.124L21.268 86.072ZM45.4579 82.688V86.912H46.1539C46.8819 86.912 47.4059 86.74 47.7259 86.396C48.0459 86.052 48.2059 85.496 48.2059 84.728C48.2059 84 48.0499 83.48 47.7379 83.168C47.4339 82.848 46.9339 82.688 46.2379 82.688H45.4579ZM46.1779 89H43.0339V80.6H46.3219C47.9299 80.6 49.0579 80.936 49.7059 81.608C50.3619 82.272 50.6899 83.284 50.6899 84.644C50.6899 86.108 50.3259 87.2 49.5979 87.92C48.8779 88.64 47.7379 89 46.1779 89ZM75.2591 89L74.8271 87.488H71.9471L71.5271 89H69.1391L71.7191 80.6H75.1631L77.7071 89H75.2591ZM73.3871 82.376L72.5351 85.412H74.2391L73.3871 82.376ZM96.6993 89V80.6H100.083C102.411 80.6 103.575 81.56 103.575 83.48C103.575 84.704 103.131 85.544 102.243 86L104.031 89H101.427L99.9993 86.444H99.8553H99.1233V89H96.6993ZM99.0633 82.688V84.536H99.9273C100.319 84.536 100.611 84.464 100.803 84.32C100.995 84.168 101.091 83.928 101.091 83.6C101.091 83.272 100.991 83.04 100.791 82.904C100.599 82.76 100.287 82.688 99.8553 82.688H99.0633Z" fill="black"/>
</svg>
