<svg width="119" height="99" viewBox="0 0 119 99" fill="none" xmlns="http://www.w3.org/2000/svg">
<path d="M0.883545 0.883301H118.116V97.3619H0.883545V0.883301Z" fill="#D9D9D9"/>
<path fill-rule="evenodd" clip-rule="evenodd" d="M0 0H119V98.2459H0V0ZM0.883644 0.883644V97.3622H118.116V0.883644H0.883644Z" fill="#3B332F"/>
<path d="M51.9275 26.1919L57.8172 46.1046H28.9297L51.9275 26.1919Z" fill="#BCB7B7"/>
<path d="M0.883545 22.2657L32.2952 0.950684L51.9275 26.1922L28.9296 46.1049L0.883545 37.0221V22.2657Z" fill="white"/>
<path d="M49.4036 0.883301H112.507L97.0819 23.3872L49.4036 0.883301Z" fill="white"/>
<path d="M0.883545 0.950684H32.2952L0.883545 22.2657V0.950684Z" fill="#FF0000"/>
<path d="M49.756 0.950684L97.0817 23.3876L70.1574 28.7163L51.9274 26.1922L32.2952 0.950684H49.756Z" fill="#BCB7B7"/>
<path d="M51.927 26.1919L70.157 28.716L81.9363 56.2012L57.8167 46.1046L51.927 26.1919Z" fill="#FF0000"/>
<path d="M81.9689 56.0981L118.116 97.3628H50.5251L57.8171 46.1055L81.9689 56.0981Z" fill="#BCB7B7"/>
<path d="M0.883545 88.6686L28.8476 46.1055H57.8171L50.5251 97.3628H0.883545V88.6686Z" fill="white"/>
<path d="M81.9366 56.2016L70.1572 28.7165L97.0815 23.3877L118.116 62.3718V72.7488V97.6429L81.9366 56.2016Z" fill="white"/>
<path d="M0.883545 36.8501L28.9296 46.1053L0.883545 88.6318V36.8501Z" fill="#FF0000"/>
<path d="M112.507 0.950684H118.116V94.8382L97.0815 23.3876L112.507 0.950684Z" fill="#FF0000"/>
<path opacity="0.5" d="M0.883545 72.6802H118.116V97.3607H0.883545V72.6802Z" fill="#666666"/>
<path d="M25.2918 80.3232V88.3644H23.0518V83.0687L21.501 88.3644H19.3758L17.825 83.1032V88.3644H15.585V80.3232H18.9967L20.5016 85.6534L22.0064 80.3232H25.2918Z" fill="black"/>
<path d="M51.9814 86.2967V90.1564H49.8217V88.3644H45.3991V90.1564H43.251V86.2967H43.9976C44.2963 85.8065 44.5069 85.1786 44.6294 84.4127C44.7596 83.6469 44.84 82.6131 44.8707 81.3112L44.8937 80.3232H50.9705V86.2967H51.9814ZM46.3526 86.2967H48.65V82.391H47.0303C47.0303 82.4139 47.0265 82.4714 47.0188 82.5633C47.0188 82.6475 47.0188 82.6973 47.0188 82.7126C46.9422 84.1677 46.7201 85.3624 46.3526 86.2967Z" fill="black"/>
<path d="M75.5589 88.3644L75.1454 86.917H72.3884L71.9864 88.3644H69.7004L72.1702 80.3232H75.467L77.9024 88.3644H75.5589ZM73.7669 82.0234L72.9513 84.9297H74.5825L73.7669 82.0234Z" fill="black"/>
<path d="M98.0016 82.322V84.2404H98.7827C99.5792 84.2404 99.9774 83.9188 99.9774 83.2755C99.9774 82.9309 99.8817 82.6858 99.6902 82.5403C99.4988 82.3948 99.1848 82.322 98.7483 82.322H98.0016ZM98.059 86.2392V88.3644H95.7386V80.3232H98.9665C101.226 80.3232 102.355 81.2767 102.355 83.1836C102.355 84.1715 102.06 84.9297 101.471 85.4581C100.881 85.9789 99.9851 86.2392 98.7827 86.2392H98.059Z" fill="black"/>
</svg>
