<svg width="34" height="40" viewBox="0 0 34 40" fill="none" xmlns="http://www.w3.org/2000/svg">
<path d="M26.9745 6.26667C25.4922 4.53249 24.6754 2.30541 24.676 0H17.9758V27.5556C17.9241 29.0467 17.3098 30.4592 16.2622 31.4954C15.2147 32.5317 13.8156 33.1109 12.3597 33.1111C9.28061 33.1111 6.72194 30.5333 6.72194 27.3333C6.72194 23.5111 10.3214 20.6444 14.0293 21.8222V14.8C6.54847 13.7778 0 19.7333 0 27.3333C0 34.7333 5.98469 40 12.338 40C19.1467 40 24.676 34.3333 24.676 27.3333V13.3556C27.393 15.3552 30.655 16.4281 34 16.4222V9.55556C34 9.55556 29.9235 9.75556 26.9745 6.26667Z" fill="black"/>
</svg>
