<svg id="ewhSKYE1tHy1" xmlns="http://www.w3.org/2000/svg" xmlns:xlink="http://www.w3.org/1999/xlink" viewBox="0 0 426 336" shape-rendering="geometricPrecision" text-rendering="geometricPrecision">
<style><![CDATA[
#ewhSKYE1tHy2 {animation: ewhSKYE1tHy2_c_o 1610ms linear infinite normal forwards}@keyframes ewhSKYE1tHy2_c_o { 0% {opacity: 0} 67.701863% {opacity: 0} 100% {opacity: 1}} #ewhSKYE1tHy3 {animation: ewhSKYE1tHy3_c_o 1610ms linear infinite normal forwards}@keyframes ewhSKYE1tHy3_c_o { 0% {opacity: 0} 43.478261% {opacity: 0;animation-timing-function: cubic-bezier(0,0,0.58,1)} 63.354037% {opacity: 1} 100% {opacity: 1}} #ewhSKYE1tHy4 {animation: ewhSKYE1tHy4_c_o 1610ms linear infinite normal forwards}@keyframes ewhSKYE1tHy4_c_o { 0% {opacity: 0} 67.701863% {opacity: 0} 100% {opacity: 1}} #ewhSKYE1tHy5 {animation: ewhSKYE1tHy5_c_o 1610ms linear infinite normal forwards}@keyframes ewhSKYE1tHy5_c_o { 0% {opacity: 0} 8.074534% {opacity: 0;animation-timing-function: cubic-bezier(0.42,0,0.58,1)} 35.403727% {opacity: 1} 100% {opacity: 1}} #ewhSKYE1tHy6 {animation: ewhSKYE1tHy6_c_o 1610ms linear infinite normal forwards}@keyframes ewhSKYE1tHy6_c_o { 0% {opacity: 0} 67.701863% {opacity: 0} 100% {opacity: 1}} #ewhSKYE1tHy7 {animation: ewhSKYE1tHy7_c_o 1610ms linear infinite normal forwards}@keyframes ewhSKYE1tHy7_c_o { 0% {opacity: 0} 32.919255% {opacity: 0} 54.037267% {opacity: 1} 100% {opacity: 1}} #ewhSKYE1tHy8 {animation: ewhSKYE1tHy8_c_o 1610ms linear infinite normal forwards}@keyframes ewhSKYE1tHy8_c_o { 0% {opacity: 0} 67.701863% {opacity: 0} 100% {opacity: 1}} #ewhSKYE1tHy9 {animation: ewhSKYE1tHy9_c_o 1610ms linear infinite normal forwards}@keyframes ewhSKYE1tHy9_c_o { 0% {opacity: 0} 32.919255% {opacity: 0} 54.037267% {opacity: 1} 100% {opacity: 1}}
]]></style>
<path id="ewhSKYE1tHy2" d="M1,179.303v155.622h171.862h171.862v-117.819c0-72.077-.556-117.8186-1.252-117.8186s-3.618,2.5206-6.262,5.5446l-5.01,5.418v106.73v106.604h-160.034-160.0332v-144.281-144.2805l136.5152-.252l136.516-.378l5.01-5.4184l4.87-5.2924h-147.091-146.953v155.6213Z" opacity="0" fill="#f00"/><path id="ewhSKYE1tHy3" d="M295,23.5l-10,11L12,35v288.5h320v-213l11.5-11l1,235.5L1,335L1,23.5h294Z" opacity="0" fill="none" stroke="#f00" stroke-width="2"/><path id="ewhSKYE1tHy4" d="M257.471,85.3003c-46.479,46.3717-85.026,84.3007-85.444,84.1747-.417-.126-24.214-23.816-52.602-52.546C90.8972,88.1985,65.4309,62.6186,62.7869,60.2244l-4.7314-4.4103v38.4329v38.433l56.7775,56.326c31.171,30.872,57.055,56.2,57.612,56.074.696-.252,237.267-230.345,247.982-241.30783l2.644-2.772209h-40.495-40.496L257.471,85.3003Z" opacity="0" fill="#f00"/><path id="ewhSKYE1tHy5" d="M172,169.5L58,56v76.5L172.5,245L423,1h-81L172,169.5Z" opacity="0" fill="none" stroke="#f00" stroke-width="2"/><path id="ewhSKYE1tHy6" d="M284.945,227.383v63.257h-29.92-29.919v-34.401l.139-34.275l25.049-24.571c13.777-13.483,27.136-26.588,29.78-28.983l4.871-4.41v63.383Z" opacity="0" fill="#f00"/><path id="ewhSKYE1tHy7" d="M225.5,221.578c19.5-18.834,58.7-56.7,59.5-57.5v126.5h-60l.5-69Z" opacity="0" fill="none" stroke="#f00" stroke-width="2"/><path id="ewhSKYE1tHy8" d="M58.0555,226.305v63.257h29.9193h29.9192v-34.401l-.139-34.274-25.0488-24.572c-13.7768-13.483-27.1361-26.588-29.7801-28.983l-4.8706-4.41v63.383Z" opacity="0" fill="#f00" stroke="#958e8e"/><path id="ewhSKYE1tHy9" d="M117.5,220.5C98,201.667,58.8,163.8,58,163v126.5h60l-.5-69Z" opacity="0" fill="none" stroke="#f00" stroke-width="2"/></svg>
